<svg xmlns="http://www.w3.org/2000/svg" version="1.1" xmlns:xlink="http://www.w3.org/1999/xlink" width="512" height="512" x="0" y="0" viewBox="0 0 512 512" style="enable-background:new 0 0 512 512" xml:space="preserve" class=""><g><linearGradient id="b" x1="35.19" x2="424.906" y1="388.519" y2="-1.197" gradientUnits="userSpaceOnUse"><stop offset="0" stop-color="#ffd8d8" stop-opacity="0"></stop><stop offset=".998" stop-color="#ffb2b2"></stop></linearGradient><linearGradient id="a"><stop offset="0" stop-color="#ff4d4d" stop-opacity=".4"></stop><stop offset=".146" stop-color="#ff4d4d" stop-opacity=".342"></stop><stop offset="1" stop-color="#ff4d4d" stop-opacity="0"></stop></linearGradient><linearGradient xlink:href="#a" id="c" x1="191.617" x2="191.617" y1="319.08" y2="57.096" gradientUnits="userSpaceOnUse"></linearGradient><linearGradient xlink:href="#a" id="d" x1="336.212" x2="336.212" y1="454.9" y2="183.27" gradientUnits="userSpaceOnUse"></linearGradient><path fill="url(#b)" d="M506.654 127.571C499.388 71.399 468.832 0 339.268 0c-89.477 0-90.686 42.86-185.991 21.61C83.824 6.125 14.766 57.209 5.166 128.571-5.19 205.555 50.497 240.846 68.575 305.437 88.076 375.109 102.082 512 188.852 512c95.678 0 100.618-74.035 162.591-155.271 59.629-78.166 170.626-109.984 155.211-229.158z" opacity="1" data-original="url(#b)"></path><path fill="#ffffff" d="M336.211 103.098V310.32a8.76 8.76 0 0 1-8.76 8.76H55.781a8.76 8.76 0 0 1-8.76-8.76V103.098l4.999-5h278.837z" opacity="1" data-original="#ffffff"></path><path fill="#d8d8ff" d="M310.951 209.63c-4.02.76-7.09 4.04-7.55 8.1l-3.09 27.59c-11.3 4.14-21.68 10.2-30.77 17.8l-25.43-11.14c-3.74-1.64-8.12-.62-10.79 2.48a135.16 135.16 0 0 0-25.34 43.75c-1.36 3.87-.06 8.17 3.24 10.61l13.91 10.26h67.32c8.48-15.44 24.89-25.91 43.76-25.91v-85.9c-8.64 0-17.08.81-25.26 2.36z" opacity="1" data-original="#d8d8ff"></path><path fill="#ff6c6c" d="M271.967 259.995h-33.931a5 5 0 0 1-5-5v-55.954a5 5 0 0 1 5-5h33.931a5 5 0 0 1 5 5v55.954a5 5 0 0 1-5 5z" opacity="1" data-original="#ff6c6c" class=""></path><path fill="url(#a)" d="M327.454 57.096H55.783a8.76 8.76 0 0 0-8.76 8.76l-.002 244.464a8.76 8.76 0 0 0 8.76 8.76h271.67a8.76 8.76 0 0 0 8.76-8.76l.003-244.464a8.76 8.76 0 0 0-8.76-8.76z" opacity="1" data-original="url(#a)"></path><path fill="#ff6c6c" d="M336.214 103.098V65.856a8.76 8.76 0 0 0-8.76-8.76H55.783a8.76 8.76 0 0 0-8.76 8.76v37.241h289.191z" opacity="1" data-original="#ff6c6c" class=""></path><g fill="#fff"><circle cx="77.142" cy="82.055" r="5" fill="#ffffff" opacity="1" data-original="#ffffff"></circle><circle cx="94.979" cy="82.055" r="5" fill="#ffffff" opacity="1" data-original="#ffffff"></circle><circle cx="112.815" cy="82.055" r="5" fill="#ffffff" opacity="1" data-original="#ffffff"></circle></g><path fill="#9393ff" d="m461.2 353.32-22.39-16.49c.98-5.77 1.54-11.71 1.54-17.76 0-6.03-.56-11.96-1.54-17.73l22.39-16.5c3.3-2.43 4.6-6.73 3.25-10.6-5.65-16.21-14.3-31.01-25.29-43.77-2.67-3.1-7.05-4.13-10.8-2.49l-25.48 11.14c-9.05-7.57-19.43-13.66-30.74-17.8l-3.09-27.58c-.45-4.07-3.52-7.35-7.55-8.11-8.19-1.55-16.65-2.36-25.29-2.36s-17.08.81-25.26 2.36c-4.02.76-7.09 4.04-7.55 8.1l-3.09 27.59c-11.3 4.14-21.68 10.2-30.77 17.8l-25.43-11.14c-3.74-1.64-8.11-.62-10.79 2.48a135.16 135.16 0 0 0-25.34 43.75c-1.36 3.87-.06 8.17 3.24 10.61l22.4 16.52c-.99 5.77-1.52 11.67-1.52 17.73 0 6.05.53 11.99 1.52 17.76l-22.4 16.52c-3.3 2.43-4.6 6.74-3.24 10.61 5.67 16.2 14.32 31 25.28 43.74 2.68 3.1 7.05 4.12 10.8 2.48l25.48-11.13a104.74 104.74 0 0 0 30.77 17.79l3.09 27.62c.46 4.07 3.53 7.35 7.56 8.11 8.19 1.54 16.63 2.33 25.25 2.33 8.64 0 17.1-.81 25.29-2.36 4.03-.76 7.1-4.04 7.55-8.11l3.09-27.59c11.31-4.17 21.65-10.22 30.74-17.79l25.45 11.13c3.75 1.64 8.13.62 10.8-2.47a135.583 135.583 0 0 0 25.32-43.78c1.35-3.87.05-8.18-3.25-10.61zm-124.99 34.45c-37.94 0-68.67-30.77-68.67-68.71 0-37.9 30.73-68.67 68.67-68.67s68.67 30.77 68.67 68.67c0 37.94-30.73 68.71-68.67 68.71z" opacity="1" data-original="#9393ff"></path><path fill="#6c6cff" d="M336.211 244.05c-41.44 0-75.01 33.61-75.01 75.01 0 41.44 33.57 75.05 75.01 75.05s75.01-33.61 75.01-75.05c0-41.4-33.57-75.01-75.01-75.01zm0 124.95c-27.57 0-49.9-22.36-49.9-49.93 0-27.54 22.33-49.9 49.9-49.9s49.9 22.36 49.9 49.9c0 27.57-22.33 49.93-49.9 49.93z" opacity="1" data-original="#6c6cff" class=""></path><path fill="#ffaa66" d="M195.755 192.58c0-2.99-.276-5.934-.767-8.801l11.117-8.186a4.635 4.635 0 0 0 1.612-5.263 67.18 67.18 0 0 0-12.554-21.723 4.63 4.63 0 0 0-5.358-1.233l-12.648 5.527a51.3 51.3 0 0 0-15.256-8.831l-1.532-13.693a4.627 4.627 0 0 0-3.747-4.025 67.498 67.498 0 0 0-12.552-1.172 67.41 67.41 0 0 0-12.538 1.171 4.626 4.626 0 0 0-3.746 4.025l-1.532 13.693a51.254 51.254 0 0 0-15.271 8.831l-12.622-5.526a4.63 4.63 0 0 0-5.357 1.226 67.079 67.079 0 0 0-12.577 21.715 4.633 4.633 0 0 0 1.607 5.265l11.117 8.199a52.006 52.006 0 0 0 0 17.617l-11.117 8.199a4.633 4.633 0 0 0-1.607 5.265 67.37 67.37 0 0 0 12.55 21.708 4.628 4.628 0 0 0 5.359 1.233l12.648-5.526a51.905 51.905 0 0 0 15.271 8.831l1.532 13.706a4.627 4.627 0 0 0 3.752 4.027 67.807 67.807 0 0 0 12.532 1.157c4.29 0 8.486-.403 12.552-1.172a4.627 4.627 0 0 0 3.747-4.025l1.532-13.693a51.85 51.85 0 0 0 15.256-8.831l12.635 5.526a4.629 4.629 0 0 0 5.358-1.23 67.179 67.179 0 0 0 12.564-21.725 4.634 4.634 0 0 0-1.611-5.266l-11.115-8.185c.49-2.866.766-5.81.766-8.815zm-51.685 24.781c-13.684 0-24.767-11.097-24.767-24.781 0-13.669 11.083-24.767 24.767-24.767s24.767 11.097 24.767 24.767c0 13.684-11.083 24.781-24.767 24.781zM245.075 142.219h-7.04a5 5 0 0 1-5-5v-7.04a5 5 0 0 1 5-5h7.04a5 5 0 0 1 5 5v7.04a5 5 0 0 1-5 5z" opacity="1" data-original="#ffaa66"></path><g fill="#9393ff"><path d="M233.035 156.63a5 5 0 0 0 5 5h33.931a5 5 0 0 0 0-10h-33.931a5 5 0 0 0-5 5zM283.967 169.029h-45.931a5 5 0 0 0 0 10h45.931a5 5 0 0 0 0-10z" fill="#9393ff" opacity="1" data-original="#9393ff"></path></g><path fill="#ff6c6c" d="M155.351 417.549h-58.73c-5.925 0-10.728-4.803-10.728-10.728V294.748c0-5.925 4.803-10.728 10.728-10.728h8.741l8.173 5h24.902l8.173-5h8.741c5.925 0 10.728 4.803 10.728 10.728v112.073c0 5.925-4.803 10.728-10.728 10.728z" opacity="1" data-original="#ff6c6c" class=""></path><path fill="#6c6cff" d="m143.65 296.206 2.96-12.186h-41.248l2.96 12.186a5.364 5.364 0 0 0 5.213 4.098h24.902a5.365 5.365 0 0 0 5.213-4.098z" opacity="1" data-original="#6c6cff" class=""></path><path fill="#ffffff" d="m145.066 350.244-7.958-7.958c3.32-6.337 2.321-14.364-2.998-19.683-6.55-6.549-17.206-6.549-23.756 0-6.549 6.549-6.549 17.207 0 23.756a16.749 16.749 0 0 0 11.878 4.912 16.82 16.82 0 0 0 7.805-1.914l7.958 7.958c.977.976 2.256 1.464 3.536 1.464s2.559-.488 3.536-1.464a5.002 5.002 0 0 0-.001-7.071zm-27.641-10.956a6.806 6.806 0 0 1 0-9.613c1.325-1.325 3.066-1.988 4.807-1.988s3.481.663 4.807 1.988a6.806 6.806 0 0 1 0 9.613 6.805 6.805 0 0 1-9.614 0zM111.02 389.541a5 5 0 0 0 5 5h19.931a5 5 0 0 0 0-10H116.02a5 5 0 0 0-5 5z" opacity="1" data-original="#ffffff"></path><path fill="#ff6c6c" d="M415.979 175.717a5 5 0 0 1-5-5c0-3.032-2.468-5.5-5.5-5.5-2.762 0-5-2.238-5-5s2.238-5 5-5c3.032 0 5.5-2.468 5.5-5.5 0-2.762 2.238-5 5-5s5 2.238 5 5c0 3.032 2.468 5.5 5.5 5.5 2.762 0 5 2.238 5 5s-2.238 5-5 5a5.507 5.507 0 0 0-5.5 5.5 5 5 0 0 1-5 5z" opacity="1" data-original="#ff6c6c" class=""></path><path fill="#6c6cff" d="M38.586 408.724a5 5 0 0 1-5-5c0-3.032-2.467-5.5-5.5-5.5a5 5 0 1 1 0-10c3.033 0 5.5-2.468 5.5-5.5a5 5 0 1 1 10 0c0 3.032 2.467 5.5 5.5 5.5a5 5 0 1 1 0 10 5.506 5.506 0 0 0-5.5 5.5 5 5 0 0 1-5 5z" opacity="1" data-original="#6c6cff" class=""></path><path fill="#ff9c33" d="M195.455 465.787a5 5 0 0 1-5-5c0-3.032-2.467-5.5-5.5-5.5a5 5 0 1 1 0-10c3.033 0 5.5-2.468 5.5-5.5a5 5 0 1 1 10 0c0 3.032 2.467 5.5 5.5 5.5a5 5 0 1 1 0 10 5.506 5.506 0 0 0-5.5 5.5 5 5 0 0 1-5 5z" opacity="1" data-original="#ff9c33"></path><path fill="#6c6cff" d="M376.841 129.989a4.98 4.98 0 0 1-3.535-1.465l-10.5-10.5a4.998 4.998 0 0 1 0-7.07l10.5-10.5a4.998 4.998 0 0 1 7.07 0l10.5 10.5a4.998 4.998 0 0 1 0 7.07l-10.5 10.5a4.981 4.981 0 0 1-3.535 1.465zm-3.429-15.5 3.429 3.429 3.429-3.429-3.429-3.429z" opacity="1" data-original="#6c6cff" class=""></path><path fill="#ff6c6c" d="M415.979 473.59a4.98 4.98 0 0 1-3.535-1.465l-10.5-10.5a4.998 4.998 0 0 1 0-7.07l10.5-10.5a4.998 4.998 0 0 1 7.07 0l10.5 10.5a4.998 4.998 0 0 1 0 7.07l-10.5 10.5a4.981 4.981 0 0 1-3.535 1.465zm-3.429-15.5 3.429 3.429 3.429-3.429-3.429-3.429z" opacity="1" data-original="#ff6c6c" class=""></path><path fill="url(#a)" d="m461.2 353.32-22.39-16.49c.98-5.77 1.54-11.71 1.54-17.76 0-6.03-.56-11.96-1.54-17.73l22.39-16.5c3.3-2.43 4.6-6.73 3.25-10.6-5.65-16.21-14.3-31.01-25.29-43.77-2.67-3.1-7.05-4.13-10.8-2.49l-25.48 11.14c-9.05-7.57-19.43-13.66-30.74-17.8l-3.09-27.58c-.45-4.07-3.52-7.35-7.55-8.11-8.19-1.55-16.65-2.36-25.29-2.36s-17.08.81-25.26 2.36c-4.02.76-7.09 4.04-7.55 8.1l-3.09 27.59c-11.3 4.14-21.68 10.2-30.77 17.8l-25.43-11.14c-3.74-1.64-8.11-.62-10.79 2.48a135.16 135.16 0 0 0-25.34 43.75c-1.36 3.87-.06 8.17 3.24 10.61l22.4 16.52c-.99 5.77-1.52 11.67-1.52 17.73 0 6.05.53 11.99 1.52 17.76l-22.4 16.52c-3.3 2.43-4.6 6.74-3.24 10.61 5.67 16.2 14.32 31 25.28 43.74 2.68 3.1 7.05 4.12 10.8 2.48l25.48-11.13a104.74 104.74 0 0 0 30.77 17.79l3.09 27.62c.46 4.07 3.53 7.35 7.56 8.11 8.19 1.54 16.63 2.33 25.25 2.33 8.64 0 17.1-.81 25.29-2.36 4.03-.76 7.1-4.04 7.55-8.11l3.09-27.59c11.31-4.17 21.65-10.22 30.74-17.79l25.45 11.13c3.75 1.64 8.13.62 10.8-2.47a135.583 135.583 0 0 0 25.32-43.78c1.35-3.87.05-8.18-3.25-10.61zm-124.99 34.45c-37.94 0-68.67-30.77-68.67-68.71 0-37.9 30.73-68.67 68.67-68.67s68.67 30.77 68.67 68.67c0 37.94-30.73 68.71-68.67 68.71z" opacity="1" data-original="url(#a)"></path></g></svg>